<svg width="2048" height="2048" viewBox="0 0 2048 2048" fill="none" xmlns="http://www.w3.org/2000/svg">
<path d="M1924 1661.98C1923.99 1679.49 1912.49 1697.03 1889.55 1710.4L1557.14 1903.95C1511.24 1930.68 1436.77 1930.68 1390.87 1903.95C1345.81 1877.71 1219.84 1790.88 1128.06 1726.92C1065.55 1683.37 982.453 1683.36 919.939 1726.92C828.161 1790.88 702.224 1877.71 657.157 1903.95C611.255 1930.68 536.758 1930.68 490.855 1903.95L158.447 1710.4C135.508 1697.03 124.006 1679.49 124 1661.98V1265.76C127.487 1268.24 131.053 1270.6 134.717 1272.77L134.742 1272.8L304.535 1373.31C301.563 1404.21 311.455 1436.19 334.245 1459.86C347.087 1473.19 362.479 1482.28 378.775 1487.1C421.907 1499.87 472.934 1502.79 504.649 1535.71C536.362 1568.64 539.151 1621.64 551.448 1666.43C556.095 1683.35 564.853 1699.31 577.692 1712.64C618.027 1754.52 683.422 1754.52 723.756 1712.64C764.084 1670.76 764.084 1602.86 723.756 1560.98C710.914 1547.65 695.522 1538.56 679.226 1533.73C640.442 1522.25 595.327 1518.69 563.557 1494.16C567.05 1494.3 570.526 1494.4 573.982 1494.4C612.281 1494.4 653.283 1485.9 686.917 1465.99L921.575 1327.04C952.579 1308.69 987.959 1299.02 1023.99 1299.02C1060.02 1299.02 1095.4 1308.69 1126.4 1327.04L1361.06 1465.96C1394.69 1485.88 1435.69 1494.4 1473.99 1494.4C1477.47 1494.4 1480.96 1494.3 1484.47 1494.16C1452.69 1518.69 1407.56 1522.25 1368.77 1533.73C1352.48 1538.56 1337.09 1547.65 1324.24 1560.98C1283.92 1602.86 1283.92 1670.76 1324.24 1712.64C1364.58 1754.52 1429.97 1754.52 1470.31 1712.64C1483.15 1699.31 1491.9 1683.35 1496.55 1666.43C1508.85 1621.64 1511.64 1568.65 1543.35 1535.71C1575.07 1502.78 1626.11 1499.87 1669.25 1487.1C1685.54 1482.28 1700.91 1473.19 1713.75 1459.86C1736.56 1436.17 1746.45 1404.17 1743.47 1373.26L1913.26 1272.8C1916.93 1270.62 1920.5 1268.22 1924 1265.74V1661.98Z" fill="#6E5AA6"/>
<path d="M1386.55 932.975C1434.84 904.381 1513.14 904.385 1561.44 932.975L1887.77 1126.26C1936.05 1154.86 1936.06 1201.21 1887.77 1229.8L1726.96 1324.99C1723.19 1319.06 1718.79 1313.42 1713.75 1308.2C1700.93 1294.89 1685.59 1285.82 1669.32 1281C1626.17 1268.22 1575.1 1265.36 1543.38 1232.42C1511.64 1199.46 1508.85 1146.41 1496.53 1101.6C1491.88 1084.7 1483.14 1068.76 1470.31 1055.44C1429.97 1013.56 1364.58 1013.56 1324.24 1055.44C1283.92 1097.32 1283.92 1165.22 1324.24 1207.1C1337.07 1220.42 1352.45 1229.49 1368.72 1234.32C1411.88 1247.11 1462.96 1250 1494.7 1282.95L1515.15 1304.22C1534.61 1324.43 1537.59 1355.48 1537.57 1384.05C1537.55 1401.51 1536.39 1419.88 1531.1 1436.15C1484.49 1450.52 1425.68 1446.16 1386.55 1422.99L1151.86 1284.05C1113.15 1261.13 1068.98 1249.04 1023.99 1249.04C978.997 1249.04 934.828 1261.13 896.112 1284.05L661.429 1422.99C622.302 1446.15 563.482 1450.57 516.88 1436.2C511.575 1419.92 510.449 1401.52 510.434 1384.05C510.411 1355.48 513.391 1324.43 532.846 1304.22L553.304 1282.95C585.038 1250 636.121 1247.11 679.275 1234.32C695.557 1229.49 710.924 1220.42 723.756 1207.1C764.085 1165.22 764.083 1097.32 723.756 1055.44C683.422 1013.56 618.025 1013.56 577.692 1055.44C564.864 1068.76 556.123 1084.7 551.473 1101.6C539.149 1146.41 536.358 1199.46 504.624 1232.42C472.898 1265.35 421.847 1268.22 378.702 1281C362.435 1285.82 347.07 1294.88 334.245 1308.2C329.21 1313.43 324.791 1319.06 321.013 1324.99L160.205 1229.8C111.932 1201.21 111.949 1154.86 160.205 1126.26L486.534 932.975C534.825 904.381 613.13 904.389 661.429 932.975L918.206 1085.05C950.232 1104.02 986.766 1114.03 1023.99 1114.03C1061.21 1114.03 1097.77 1104.02 1129.79 1085.05L1386.55 932.975Z" fill="#6E5AA6"/>
<path d="M1473.99 861.491C1435.7 861.49 1394.69 870 1361.06 889.909L1104.31 1042.01C1080 1056.41 1052.25 1064.01 1023.99 1064.01C995.739 1064.01 968.007 1056.41 943.693 1042.01L686.892 889.909C653.269 870.01 612.295 861.496 574.006 861.491L573.982 478.237C577.474 480.714 581.053 483.07 584.723 485.244L911.053 678.482C944.688 698.398 985.687 706.9 1023.99 706.9C1062.28 706.899 1103.27 698.394 1136.9 678.482L1463.23 485.244C1466.91 483.064 1470.49 480.697 1473.99 478.213V861.491Z" fill="#6E5AA6"/>
<path d="M936.565 145.447C984.862 116.851 1063.16 116.851 1111.46 145.447L1437.79 338.661C1486.08 367.259 1486.08 413.627 1437.79 442.226L1111.46 635.464C1063.16 664.06 984.863 664.057 936.565 635.464L610.235 442.226C561.939 413.627 561.938 367.26 610.235 338.661L936.565 145.447Z" fill="#6E5AA6"/>
</svg>
