<svg width="1160" height="520" viewBox="0 0 1160 520" fill="none" xmlns="http://www.w3.org/2000/svg">
<path d="M753.205 369L706.988 284L705.249 279L702.764 283.875L684.253 308.25C682.679 303.833 681.975 298.792 682.141 293.125C682.389 287.458 683.425 281.75 685.247 276C687.152 270.25 689.844 265 693.322 260.25L746.62 187.25H776.685L720.654 260.5L785.009 369H753.205ZM644 369V187.25H670.835V369H644Z" fill="#13183E"/>
<path d="M881.126 372C877.565 372 874.169 371.875 870.939 371.625C867.709 371.458 864.271 371.042 860.627 370.375C856.983 369.792 852.759 368.917 847.955 367.75C849.446 364.833 851.268 362.083 853.421 359.5C855.658 356.917 858.267 354.875 861.248 353.375C864.313 351.875 867.833 351.25 871.808 351.5C873.713 351.667 875.204 351.792 876.281 351.875C877.358 351.875 878.641 351.875 880.132 351.875C888.498 351.875 896.076 349.875 902.868 345.875C909.742 341.875 915.623 336.458 920.509 329.625C925.479 322.708 929.289 314.792 931.939 305.875C934.59 296.958 935.915 287.583 935.915 277.75C935.915 262.5 933.306 249.375 928.088 238.375C922.953 227.375 915.084 218.958 904.483 213.125C893.881 207.208 880.464 204.25 864.23 204.25C859.675 204.25 855.161 204.417 850.688 204.75C846.298 205.083 842.116 205.542 838.14 206.125V369H811.429V190.125C820.126 188.042 829.278 186.5 838.886 185.5C848.576 184.5 857.024 184 864.23 184C885.516 184 903.613 187.75 918.522 195.25C933.513 202.667 944.943 213.375 952.811 227.375C960.679 241.375 964.614 258.167 964.614 277.75C964.614 291.25 962.419 303.75 958.029 315.25C953.722 326.667 947.717 336.625 940.015 345.125C932.395 353.625 923.532 360.25 913.428 365C903.406 369.667 892.639 372 881.126 372Z" fill="#13183E"/>
<path d="M1100.2 369L1053.98 284L1052.24 279L1049.75 283.875L1031.24 308.25C1029.67 303.833 1028.97 298.792 1029.13 293.125C1029.38 287.458 1030.42 281.75 1032.24 276C1034.14 270.25 1036.83 265 1040.31 260.25L1093.61 187.25H1123.68L1067.65 260.5L1132 369H1100.2ZM990.991 369V187.25H1017.83V369H990.991Z" fill="#13183E"/>
<path fill-rule="evenodd" clip-rule="evenodd" d="M139.001 279.299C139.001 283.776 141.934 288.253 147.799 291.669L232.761 341.147C244.491 347.979 263.511 347.978 275.241 341.147L360.203 291.669C366.068 288.253 369.001 283.776 369.001 279.299V98.1018C369.001 102.579 366.068 107.056 360.203 110.471L275.241 159.949C263.511 166.781 244.491 166.781 232.761 159.949L147.799 110.471C141.934 107.056 139.001 102.579 139.001 98.1018L139.001 279.299Z" fill="url(#paint0_linear_856_10976)"/>
<path d="M148.259 111.328C135.917 104.02 135.916 92.1704 148.259 84.8618L231.654 35.4814C243.996 28.1729 264.008 28.1729 276.351 35.4814L359.745 84.8618C372.088 92.1703 372.088 104.02 359.745 111.328L276.351 160.709C264.008 168.017 243.996 168.017 231.654 160.709L148.259 111.328Z" fill="#CFBDFE"/>
<path d="M346.648 236.739C358.99 229.431 379.003 229.432 391.346 236.739L474.743 286.133C487.081 293.442 487.084 305.286 474.743 312.593L391.346 361.965C379.003 369.273 358.991 369.273 346.648 361.965L286.676 326.46C276.782 320.603 265.495 317.512 253.997 317.512C242.499 317.512 231.212 320.603 221.318 326.46L161.346 361.965C149.003 369.273 128.991 369.273 116.648 361.965L33.2509 312.593C20.9141 305.286 20.9186 293.442 33.2509 286.133L116.648 236.739C128.99 229.431 149.003 229.432 161.346 236.739L226.961 275.605C235.146 280.453 244.484 283.011 253.997 283.011C263.51 283.011 272.848 280.453 281.033 275.605L346.648 236.739Z" fill="#CFBDFE"/>
<path d="M484 423.039C484 427.515 481.06 432 475.195 435.415L390.248 484.876C378.517 491.708 359.483 491.708 347.752 484.876C336.237 478.171 304.05 455.983 280.594 439.638C264.618 428.505 243.382 428.505 227.406 439.638C203.95 455.983 171.764 478.171 160.248 484.876C148.517 491.708 129.483 491.708 117.752 484.876L32.8047 435.415C26.9396 432 24.0003 427.515 24 423.039V299.363C23.9992 304.152 27.0823 308.94 33.2509 312.593L116.648 361.965C128.991 369.273 149.003 369.273 161.346 361.965L221.319 326.452C231.213 320.597 242.501 317.512 253.997 317.512C265.494 317.513 276.787 320.595 286.681 326.452L346.648 361.965C358.991 369.273 379.003 369.273 391.346 361.965L474.743 312.593C480.912 308.939 484.001 304.151 484 299.363V423.039Z" fill="url(#paint1_linear_856_10976)"/>
<foreignObject x="67.999" y="258.51" width="372" height="188.008"><div xmlns="http://www.w3.org/1999/xhtml" style="backdrop-filter:blur(0.75px);clip-path:url(#bgblur_0_856_10976_clip_path);height:100%;width:100%"></div></foreignObject><g filter="url(#filter0_d_856_10976)" data-figma-bg-blur-radius="1.5">
<path d="M430.268 371.394C440.576 360.691 440.576 343.338 430.268 332.635C426.991 329.232 423.068 326.917 418.911 325.686C407.883 322.42 394.836 321.683 386.728 313.264C378.618 304.843 377.906 291.29 374.756 279.839C373.568 275.518 371.336 271.442 368.057 268.037C357.749 257.335 341.037 257.335 330.73 268.037C320.422 278.74 320.422 296.093 330.73 306.796C334.009 310.201 337.934 312.519 342.095 313.752C353.124 317.023 366.175 317.762 374.285 326.183L379.515 331.613C384.489 336.778 385.248 344.715 385.241 352.019C385.235 359.325 384.476 367.264 379.501 372.43L374.278 377.853C366.172 386.27 353.129 387.01 342.106 390.273C337.941 391.506 334.012 393.825 330.73 397.233C320.422 407.936 320.422 425.288 330.73 435.991C341.037 446.694 357.749 446.694 368.057 435.991C371.339 432.583 373.572 428.503 374.759 424.179C377.902 412.733 378.615 399.189 386.72 390.773C394.826 382.357 407.869 381.617 418.892 378.353C423.057 377.12 426.986 374.801 430.268 371.394Z" fill="url(#paint2_linear_856_10976)"/>
<path d="M77.7297 371.394C67.4221 360.691 67.4221 343.338 77.7297 332.635C81.0074 329.232 84.9298 326.917 89.0873 325.686C100.115 322.42 113.162 321.683 121.27 313.264C129.38 304.843 130.093 291.29 133.242 279.839C134.43 275.518 136.662 271.442 139.941 268.037C150.249 257.335 166.961 257.335 177.268 268.037C187.576 278.74 187.576 296.093 177.268 306.796C173.989 310.201 170.064 312.519 165.903 313.752C154.874 317.023 141.823 317.762 133.713 326.183L128.483 331.613C123.509 336.778 122.75 344.715 122.757 352.019C122.763 359.325 123.522 367.264 128.497 372.43L133.72 377.853C141.826 386.27 154.869 387.01 165.892 390.273C170.057 391.506 173.986 393.825 177.268 397.233C187.576 407.936 187.576 425.288 177.268 435.991C166.961 446.694 150.249 446.694 139.941 435.991C136.659 432.583 134.426 428.503 133.239 424.179C130.096 412.733 129.383 399.189 121.278 390.773C113.172 382.357 100.129 381.617 89.1057 378.353C84.9409 377.12 81.0116 374.801 77.7297 371.394Z" fill="url(#paint3_linear_856_10976)"/>
</g>
<defs>
<filter id="filter0_d_856_10976" x="67.999" y="258.51" width="372" height="188.008" filterUnits="userSpaceOnUse" color-interpolation-filters="sRGB">
<feFlood flood-opacity="0" result="BackgroundImageFix"/>
<feColorMatrix in="SourceAlpha" type="matrix" values="0 0 0 0 0 0 0 0 0 0 0 0 0 0 0 0 0 0 127 0" result="hardAlpha"/>
<feOffset dy="0.5"/>
<feGaussianBlur stdDeviation="1"/>
<feComposite in2="hardAlpha" operator="out"/>
<feColorMatrix type="matrix" values="0 0 0 0 0.207843 0 0 0 0 0.152941 0 0 0 0 0.364706 0 0 0 1 0"/>
<feBlend mode="normal" in2="BackgroundImageFix" result="effect1_dropShadow_856_10976"/>
<feBlend mode="normal" in="SourceGraphic" in2="effect1_dropShadow_856_10976" result="shape"/>
</filter>
<clipPath id="bgblur_0_856_10976_clip_path" transform="translate(-67.999 -258.51)"><path d="M430.268 371.394C440.576 360.691 440.576 343.338 430.268 332.635C426.991 329.232 423.068 326.917 418.911 325.686C407.883 322.42 394.836 321.683 386.728 313.264C378.618 304.843 377.906 291.29 374.756 279.839C373.568 275.518 371.336 271.442 368.057 268.037C357.749 257.335 341.037 257.335 330.73 268.037C320.422 278.74 320.422 296.093 330.73 306.796C334.009 310.201 337.934 312.519 342.095 313.752C353.124 317.023 366.175 317.762 374.285 326.183L379.515 331.613C384.489 336.778 385.248 344.715 385.241 352.019C385.235 359.325 384.476 367.264 379.501 372.43L374.278 377.853C366.172 386.27 353.129 387.01 342.106 390.273C337.941 391.506 334.012 393.825 330.73 397.233C320.422 407.936 320.422 425.288 330.73 435.991C341.037 446.694 357.749 446.694 368.057 435.991C371.339 432.583 373.572 428.503 374.759 424.179C377.902 412.733 378.615 399.189 386.72 390.773C394.826 382.357 407.869 381.617 418.892 378.353C423.057 377.12 426.986 374.801 430.268 371.394Z"/>
<path d="M77.7297 371.394C67.4221 360.691 67.4221 343.338 77.7297 332.635C81.0074 329.232 84.9298 326.917 89.0873 325.686C100.115 322.42 113.162 321.683 121.27 313.264C129.38 304.843 130.093 291.29 133.242 279.839C134.43 275.518 136.662 271.442 139.941 268.037C150.249 257.335 166.961 257.335 177.268 268.037C187.576 278.74 187.576 296.093 177.268 306.796C173.989 310.201 170.064 312.519 165.903 313.752C154.874 317.023 141.823 317.762 133.713 326.183L128.483 331.613C123.509 336.778 122.75 344.715 122.757 352.019C122.763 359.325 123.522 367.264 128.497 372.43L133.72 377.853C141.826 386.27 154.869 387.01 165.892 390.273C170.057 391.506 173.986 393.825 177.268 397.233C187.576 407.936 187.576 425.288 177.268 435.991C166.961 446.694 150.249 446.694 139.941 435.991C136.659 432.583 134.426 428.503 133.239 424.179C130.096 412.733 129.383 399.189 121.278 390.773C113.172 382.357 100.129 381.617 89.1057 378.353C84.9409 377.12 81.0116 374.801 77.7297 371.394Z"/>
</clipPath><linearGradient id="paint0_linear_856_10976" x1="254" y1="29.9973" x2="255.938" y2="294.495" gradientUnits="userSpaceOnUse">
<stop stop-color="#CFBDFE"/>
<stop offset="1" stop-color="#4C3E75"/>
</linearGradient>
<linearGradient id="paint1_linear_856_10976" x1="138.999" y1="237.009" x2="139.674" y2="490.008" gradientUnits="userSpaceOnUse">
<stop stop-color="#CFBDFE"/>
<stop offset="1" stop-color="#4C3E75"/>
</linearGradient>
<linearGradient id="paint2_linear_856_10976" x1="380.498" y1="260.01" x2="380.498" y2="444.018" gradientUnits="userSpaceOnUse">
<stop stop-color="#6E5AA6"/>
<stop offset="1" stop-color="#192055"/>
</linearGradient>
<linearGradient id="paint3_linear_856_10976" x1="127.5" y1="260.01" x2="127.5" y2="444.018" gradientUnits="userSpaceOnUse">
<stop stop-color="#6E5AA6"/>
<stop offset="1" stop-color="#192055"/>
</linearGradient>
</defs>
</svg>
