<svg width="1970" height="520" viewBox="0 0 1970 520" fill="none" xmlns="http://www.w3.org/2000/svg">
<path d="M852.45 237.251C868.729 237.251 881.328 241.892 890.253 251.163C899.261 260.435 903.768 273.562 903.768 290.534V328.9C903.768 337.344 904.139 344.839 904.883 351.379C905.627 357.837 906.579 363.469 907.736 368.271H888.524C886.293 366.947 884.473 365.162 883.068 362.927C881.747 360.61 880.592 358.21 879.601 355.728L879.229 351.007L876.375 355.477C869.765 361.934 863.732 366.163 858.278 368.15C852.907 370.054 847.199 371 841.167 371C832.739 371 825.466 369.386 819.352 366.158C813.238 362.929 808.528 358.623 805.223 353.242C802.001 347.778 800.39 341.734 800.39 335.111C800.39 327.164 802.535 320.375 806.831 314.746C811.128 309.033 818.238 304.355 828.154 300.712C838.152 297.07 851.705 294.339 868.81 292.518C868.396 295.001 867.615 297.694 866.458 300.591C865.301 303.488 863.481 306.096 861.002 308.413C858.606 310.648 855.344 312.099 851.214 312.762C844.853 313.755 839.934 315.284 836.463 317.353C832.992 319.423 830.591 321.828 829.269 324.56C827.948 327.291 827.289 330.148 827.289 333.127C827.29 337.929 829.024 342.111 832.494 345.671C835.965 349.229 840.551 351.007 846.251 351.007C851.622 351.007 857.035 349.556 862.489 346.658C868.026 343.678 873.114 339.21 877.742 333.249V289.165C877.742 279.728 875.34 272.07 870.548 266.192C865.837 260.231 858.194 257.244 847.617 257.244C843.238 257.244 838.815 257.702 834.353 258.612C829.891 259.523 824.687 261.06 818.738 263.212L812.287 246.069C820.22 242.592 827.492 240.272 834.103 239.113C840.714 237.871 846.831 237.251 852.45 237.251Z" fill="#6E5AA6"/>
<path fill-rule="evenodd" clip-rule="evenodd" d="M1291.81 237.129C1304.62 237.129 1315.61 240.07 1324.78 245.948C1334.04 251.826 1341.1 259.817 1345.98 269.917C1350.93 280.017 1353.41 291.359 1353.41 303.943C1353.41 314.622 1351.72 324.143 1348.34 332.504C1345.03 340.782 1340.49 347.819 1334.7 353.614C1329 359.327 1322.43 363.68 1314.99 366.66C1307.63 369.557 1299.9 371 1291.81 371C1280.65 370.999 1270.4 368.431 1261.07 363.299C1251.73 358.083 1244.25 350.511 1238.63 340.577C1233.09 330.56 1230.33 318.348 1230.33 303.943C1230.33 292.519 1232.15 282.627 1235.79 274.266C1239.42 265.821 1244.21 258.862 1250.16 253.398C1256.2 247.934 1262.85 243.876 1270.12 241.227C1277.39 238.496 1284.62 237.13 1291.81 237.129ZM1291.81 257.122C1285.53 257.123 1279.83 258.908 1274.7 262.467C1269.66 266.027 1265.61 271.28 1262.56 278.233C1259.58 285.187 1258.09 293.76 1258.09 303.943C1258.09 317.769 1261.07 329.073 1267.02 337.849C1272.97 346.622 1281.23 351.006 1291.81 351.007C1299.41 351.007 1305.7 348.897 1310.66 344.675C1315.7 340.37 1319.41 334.658 1321.81 327.54C1324.29 320.338 1325.53 312.47 1325.53 303.943C1325.53 293.76 1324.04 285.187 1321.07 278.233C1318.09 271.28 1314.04 266.027 1308.92 262.467C1303.88 258.907 1298.17 257.122 1291.81 257.122Z" fill="#6E5AA6"/>
<path d="M1104.99 237.623C1109.95 237.623 1115.28 238.082 1120.98 238.992C1126.68 239.82 1133.17 241.519 1140.44 244.085L1134.12 261.965C1128.58 260.226 1123.67 258.985 1119.37 258.24C1115.07 257.495 1111.11 257.123 1107.47 257.122C1102.02 257.122 1097.51 258.364 1093.96 260.847C1090.49 263.248 1088.75 266.81 1088.75 271.528C1088.75 275.668 1090.2 279.19 1093.09 282.088C1095.98 284.902 1099.7 287.471 1104.25 289.789C1108.79 292.023 1113.62 294.336 1118.75 296.736C1123.87 299.137 1128.71 301.953 1133.26 305.182C1137.8 308.328 1141.52 312.262 1144.41 316.981C1147.3 321.616 1148.75 327.412 1148.75 334.366C1148.75 341.154 1146.77 347.323 1142.8 352.869C1138.83 358.334 1133.62 362.678 1127.18 365.906C1120.81 369.135 1113.91 370.757 1106.48 370.757C1100.2 370.757 1093.3 370.175 1085.78 369.016C1078.34 367.857 1069.62 364.955 1059.62 360.319L1066.07 342.067C1072.76 345.129 1079.25 347.365 1085.53 348.772C1091.81 350.097 1097.55 350.764 1102.76 350.764C1109.87 350.764 1115.12 349.142 1118.5 345.913C1121.89 342.685 1123.59 338.672 1123.59 333.872C1123.59 329.486 1122.14 325.885 1119.25 323.07C1116.36 320.173 1112.64 317.604 1108.09 315.369C1103.55 313.134 1098.71 310.853 1093.58 308.535C1088.46 306.217 1083.63 303.524 1079.08 300.461C1074.54 297.399 1070.82 293.595 1067.93 289.044C1065.04 284.408 1063.59 278.69 1063.59 271.901C1063.59 266.603 1065.08 261.342 1068.05 256.126C1071.11 250.83 1075.7 246.444 1081.81 242.968C1087.92 239.408 1095.65 237.623 1104.99 237.623Z" fill="#6E5AA6"/>
<path d="M1906.96 234.149H1948V249.794H1906.96V318.964C1906.96 324.594 1907.01 329.319 1907.09 333.127C1907.26 336.852 1908.13 340.166 1909.7 343.063C1912.67 348.608 1917.38 351.923 1923.82 352.999C1930.35 354.075 1938.41 353.827 1948 352.254V368.271C1940.48 369.844 1933.04 370.465 1925.68 370.134C1918.41 369.803 1911.88 368.227 1906.1 365.413C1900.4 362.598 1896.06 358.213 1893.09 352.254C1890.69 347.287 1889.37 342.275 1889.12 337.225C1888.95 332.093 1888.87 326.257 1888.87 319.718V249.794H1860.24V234.149H1888.87V196.892H1906.96V234.149Z" fill="#6E5AA6"/>
<path d="M670.77 368.271H644V187.701H670.77V368.271Z" fill="#6E5AA6"/>
<path d="M720.479 260.475L784.688 368.271H752.955L706.843 283.82L705.105 278.857L702.632 283.699L684.163 307.92C682.593 303.532 681.888 298.52 682.053 292.89C682.301 287.261 683.331 281.589 685.149 275.877C687.049 270.166 689.738 264.951 693.207 260.232L746.384 187.701H776.387L720.479 260.475Z" fill="#6E5AA6"/>
<path d="M967.294 368.271H941.51V180H967.294V368.271Z" fill="#6E5AA6"/>
<path d="M1031.94 368.271H1005.16V239.858H1031.94V368.271Z" fill="#6E5AA6"/>
<path d="M1201.65 368.271H1174.87V239.858H1201.65V368.271Z" fill="#6E5AA6"/>
<path fill-rule="evenodd" clip-rule="evenodd" d="M1500.01 189.442C1501.75 189.442 1503.69 189.528 1505.84 189.693C1508.07 189.776 1510.3 190.025 1512.53 190.438C1521.87 191.846 1529.76 195.112 1536.21 200.244C1542.74 205.295 1547.65 211.672 1550.96 219.371C1554.35 227.07 1556.04 235.597 1556.04 244.952C1556.04 254.224 1554.35 262.712 1550.96 270.411C1547.57 278.109 1542.61 284.526 1536.09 289.659C1529.64 294.709 1521.79 297.936 1512.53 299.344C1510.3 299.675 1508.07 299.923 1505.84 300.089C1503.69 300.254 1501.75 300.34 1500.01 300.34H1449.31V368.271H1431.09V189.442H1500.01ZM1449.31 282.954H1499.51C1501 282.954 1502.74 282.868 1504.73 282.703C1506.71 282.537 1508.65 282.25 1510.55 281.837C1516.66 280.512 1521.66 277.99 1525.55 274.266C1529.51 270.541 1532.45 266.109 1534.35 260.977C1536.33 255.844 1537.32 250.499 1537.32 244.952C1537.32 239.406 1536.33 234.067 1534.35 228.935C1532.45 223.72 1529.51 219.25 1525.55 215.525C1521.66 211.799 1516.66 209.27 1510.55 207.945C1508.65 207.532 1506.71 207.283 1504.73 207.2C1502.74 207.035 1501 206.949 1499.51 206.949H1449.31V282.954Z" fill="#6E5AA6"/>
<path d="M1633.64 233.153C1638.35 232.822 1642.65 233.157 1646.53 234.149V251.284C1641.66 250.043 1636.33 249.756 1630.54 250.418C1624.76 251.08 1619.43 253.4 1614.56 257.374C1610.09 260.851 1606.75 265.032 1604.52 269.917C1602.29 274.718 1600.79 279.847 1600.05 285.31C1599.3 290.692 1598.93 296.037 1598.93 301.336V368.271H1580.71V234.149H1597.07V255.373C1597.88 253.963 1598.73 252.591 1599.67 251.284C1602.07 247.89 1604.68 245.12 1607.49 242.968C1610.96 239.906 1615.01 237.585 1619.63 236.012C1624.26 234.357 1628.93 233.402 1633.64 233.153Z" fill="#6E5AA6"/>
<path d="M1690.75 368.271H1672.53V234.149H1690.75V368.271Z" fill="#6E5AA6"/>
<path d="M1789.27 230.797C1797.28 230.797 1804.27 232.038 1810.22 234.522C1816.25 237.005 1821.33 240.358 1825.46 244.579C1829.68 248.801 1833.07 253.651 1835.63 259.115C1838.19 264.495 1840.05 270.246 1841.21 276.371C1842.36 282.413 1842.94 288.458 1842.94 294.501V368.271H1824.6V299.846C1824.6 292.395 1823.89 285.56 1822.49 279.35C1821.08 273.06 1818.81 267.596 1815.67 262.961C1812.62 258.242 1808.6 254.595 1803.65 252.029C1798.77 249.464 1792.82 248.183 1785.8 248.183C1779.36 248.183 1773.65 249.301 1768.7 251.535C1763.82 253.77 1759.69 256.998 1756.3 261.22C1752.99 265.359 1750.47 270.41 1748.73 276.371C1747 282.331 1746.13 289.121 1746.13 296.736V368.271H1727.79V234.149H1744.27V252.791C1748.56 246.561 1753.9 241.625 1760.27 237.996C1768.69 233.196 1778.36 230.797 1789.27 230.797Z" fill="#6E5AA6"/>
<path d="M1018.54 185.839C1023.25 185.839 1027.14 187.453 1030.2 190.681C1033.34 193.827 1034.91 197.807 1034.91 202.609C1034.91 207.243 1033.34 211.132 1030.2 214.278C1027.14 217.424 1023.25 218.999 1018.54 218.999C1013.92 218.998 1010.03 217.423 1006.89 214.278C1003.76 211.132 1002.18 207.244 1002.18 202.609C1002.18 197.807 1003.75 193.827 1006.89 190.681C1010.03 187.455 1013.92 185.839 1018.54 185.839Z" fill="#6E5AA6"/>
<path d="M1188.26 185.839C1192.97 185.839 1196.85 187.453 1199.91 190.681C1203.05 193.827 1204.62 197.807 1204.62 202.609C1204.62 207.243 1203.05 211.132 1199.91 214.278C1196.85 217.424 1192.97 218.999 1188.26 218.999C1183.63 218.998 1179.75 217.423 1176.61 214.278C1173.47 211.132 1171.9 207.244 1171.9 202.609C1171.9 197.807 1173.47 193.827 1176.61 190.681C1179.75 187.455 1183.63 185.839 1188.26 185.839Z" fill="#6E5AA6"/>
<path d="M1690.75 208.69H1672.53V188.203H1690.75V208.69Z" fill="#6E5AA6"/>
<path d="M35.5 386.5C41.8513 386.5 47 391.649 47 398V421C47 446.405 67.5949 467 93 467H104.5C110.851 467 116 472.149 116 478.5C116 484.851 110.851 490 104.5 490H93C54.8924 490 24 459.108 24 421V398C24 391.649 29.1487 386.5 35.5 386.5Z" fill="#6E5AA6"/>
<path d="M472.5 386.5C478.851 386.5 484 391.649 484 398V421C484 459.108 453.108 490 415 490H403.5C397.149 490 392 484.851 392 478.5C392 472.149 397.149 467 403.5 467H415C440.405 467 461 446.405 461 421V398C461 391.649 466.149 386.5 472.5 386.5Z" fill="#6E5AA6"/>
<path fill-rule="evenodd" clip-rule="evenodd" d="M176.847 79.2568C182.091 77.1591 187.934 77.0605 193.243 78.9873L303.639 119.147C308.715 120.993 314.285 120.993 319.361 119.147L407.139 87.2305C422.135 81.7792 437.994 92.8823 438 108.838V381.896L437.73 385.467C436.446 393.64 430.809 400.611 422.861 403.503L403.5 410.556V311.054C403.497 265.536 364.588 229.738 319.227 233.519L316.98 233.698C288.857 236.039 261.131 225.89 241.175 205.937C236.04 200.801 231.502 195.092 227.653 188.934L196.5 139.07V365.454L231 377.987V414.733L193.243 400.987C187.934 399.06 182.091 399.16 176.847 401.257L101.535 431.377C87.3767 437.037 72.0471 427.626 70.1797 413.026L70 410.039V137.565C70.006 128.167 75.7379 119.719 84.4648 116.228L176.847 79.2568ZM104.5 393.036L173.5 365.432V298.476C146.278 287.349 127.501 260.743 127.5 230.262V225.5C127.5 208.482 118.239 193.656 104.5 185.699V393.036ZM104.5 145.359V160.498C131.288 169.977 150.5 195.465 150.5 225.5V230.262C150.501 247.76 159.556 263.453 173.5 272.623V117.732L104.5 145.359ZM323.292 154.434L323 154.523V210.271C355.181 209.377 384.381 223.809 403.5 246.973V125.234L323.292 154.434ZM247.149 176.737C250.076 181.42 253.532 185.77 257.437 189.675C269.013 201.25 284.034 208.461 300 210.451V154.523L299.708 154.434L213.638 123.123L247.149 176.737Z" fill="#6E5AA6"/>
<path fill-rule="evenodd" clip-rule="evenodd" d="M311.5 260C329.756 260 345.829 266.388 359.701 279.182C373.573 291.975 380.5 309.167 380.5 330.729C380.499 345.103 374.789 360.739 363.362 377.628C351.934 394.518 334.643 412.807 311.5 432.5C288.357 412.807 271.066 394.518 259.638 377.628C248.211 360.739 242.501 345.103 242.5 330.729C242.5 309.167 249.427 291.975 263.299 279.182C277.171 266.388 293.244 260 311.5 260ZM311.5 311.75C306.756 311.75 302.704 313.448 299.326 316.826C295.948 320.204 294.25 324.256 294.25 329C294.25 333.744 295.948 337.796 299.326 341.174C302.704 344.552 306.756 346.25 311.5 346.25C316.244 346.25 320.296 344.552 323.674 341.174C327.052 337.796 328.75 333.744 328.75 329C328.75 324.256 327.052 320.204 323.674 316.826C320.296 313.448 316.244 311.75 311.5 311.75Z" fill="#6E5AA6"/>
<path d="M104.5 30C110.851 30 116 35.1487 116 41.5C116 47.8513 110.851 53 104.5 53H93C67.5949 53 47 73.5949 47 99V122C47 128.351 41.8513 133.5 35.5 133.5C29.1487 133.5 24 128.351 24 122V99C24 60.8924 54.8924 30 93 30H104.5Z" fill="#6E5AA6"/>
<path d="M415 30C453.108 30 484 60.8924 484 99V122C484 128.351 478.851 133.5 472.5 133.5C466.149 133.5 461 128.351 461 122V99C461 73.5949 440.405 53 415 53H403.5C397.149 53 392 47.8513 392 41.5C392 35.1487 397.149 30 403.5 30H415Z" fill="#6E5AA6"/>
</svg>
