<svg width="2048" height="2048" viewBox="0 0 2048 2048" fill="none" xmlns="http://www.w3.org/2000/svg">
<path d="M1143.46 909.891C1032.17 932.85 1021.71 1063.85 1103.65 1111.93C1189.37 1162.17 1292.81 1083.84 1266.37 988.762C1251.55 935.281 1198.67 901.248 1143.46 909.891Z" fill="#CFBDFE"/>
<path d="M129.072 796.176C73.8628 800.498 59.3341 872.076 96.2369 899.356C134.302 927.447 186.024 889.362 177.597 839.393C173.529 813.733 153.189 795.636 129.072 796.176Z" fill="#CFBDFE"/>
<path d="M147.374 1309.65C91.5842 1313.97 86.6445 1380.41 127.906 1410.94C167.714 1440.38 216.821 1413.1 210.138 1365.56C205.489 1333.96 177.303 1308.84 147.374 1309.65Z" fill="#CFBDFE"/>
<path d="M1805.1 532.017C1776.91 549.304 1816.72 631.685 1844.91 637.088C1869.9 641.95 1866.99 591.17 1840.26 553.896C1827.76 536.339 1814.11 527.966 1805.1 532.017Z" fill="#CFBDFE"/>
<path d="M1946.03 1026.04C1916.1 1043.86 1920.75 1135.97 1942.83 1141.91C1967.53 1148.66 1982.64 1069.79 1963.46 1035.22C1956.78 1023.33 1949.8 1024.42 1946.03 1026.04Z" fill="#CFBDFE"/>
<path d="M1016.19 76.3522C987.421 84.1852 1008.05 127.132 1042.05 145.499C1071.4 161.165 1095.22 151.171 1087.67 126.051C1079.53 99.5812 1039.43 71.7604 1016.19 76.3522Z" fill="#CFBDFE"/>
<path d="M710.509 124.43C673.025 131.182 674.768 180.612 704.988 199.519C735.498 218.426 769.205 197.088 761.65 163.865C756.419 140.096 732.592 121.729 710.509 124.43Z" fill="#CFBDFE"/>
<path d="M1377.08 1830.13C1332.34 1840.94 1304.73 1893.88 1327.69 1907.65C1353.55 1923.32 1410.79 1876.59 1405.27 1844.45C1403.24 1832.57 1392.48 1827.16 1377.08 1830.13Z" fill="#CFBDFE"/>
<path d="M954.879 1896.31C905.772 1904.14 890.372 1946.28 919.429 1965.19C951.973 1986.25 1009.51 1956 1002.53 1921.16C998.755 1903.87 978.996 1893.34 954.879 1896.31Z" fill="#CFBDFE"/>
<path d="M375.478 971.479C245.01 985.524 221.183 1138.67 311.261 1204.85C401.629 1271.29 525.413 1202.42 515.243 1091.41C508.56 1021.18 445.796 967.427 375.478 971.479Z" fill="#CFBDFE"/>
<path d="M1749.89 754.852C1660.68 792.127 1697 980.929 1774.59 1007.4C1847.52 1032.52 1887.33 903.679 1835.9 808.063C1813.81 765.926 1779.82 745.128 1749.89 754.852Z" fill="#CFBDFE"/>
<path d="M1398.58 256.242C1341.92 277.58 1399.45 389.133 1467.74 418.304C1519.17 440.453 1551.42 408.58 1531.66 355.1C1509.87 297.297 1438.97 244.627 1398.58 256.242Z" fill="#CFBDFE"/>
<path d="M547.207 1626.75C453.352 1637.56 437.661 1725.88 498.972 1773.42C569.872 1828.52 676.802 1785.84 664.889 1707.24C657.334 1658.89 604.74 1622.7 547.207 1626.75Z" fill="#CFBDFE"/>
<path d="M386.805 399.667C292.95 410.471 277.259 498.795 338.57 546.333C409.469 601.434 516.4 558.758 504.487 480.158C496.932 431.539 444.338 395.615 386.805 399.667Z" fill="#CFBDFE"/>
<path d="M1720.25 1440.38C1638.02 1469.01 1602.86 1605.95 1654.58 1624.05C1708.92 1642.96 1789.7 1522.22 1764.13 1460.37C1756.57 1442 1740.3 1434.71 1720.25 1440.38Z" fill="#CFBDFE"/>
<path d="M937.441 233.554C840.971 254.082 858.406 379.681 942.672 424.248C1024.03 467.464 1106.56 417.225 1084.76 337.544C1067.62 274.88 996.137 224.101 937.441 233.554Z" fill="#CFBDFE"/>
<path d="M1204.48 1608.11C1080.41 1632.96 1039.73 1758.29 1116.15 1802.05C1197.51 1848.5 1329.72 1755.05 1309.96 1665.1C1300.66 1623.51 1257.37 1600.01 1204.48 1608.11Z" fill="#CFBDFE"/>
<path d="M1540.67 1151.36C1387.83 1194.58 1358.19 1410.93 1464.25 1469.28C1572.35 1528.97 1709.21 1379.06 1673.47 1240.5C1656.32 1174.32 1601.98 1137.86 1540.67 1151.36Z" fill="#CFBDFE"/>
<path d="M1343.09 451.255C1209.72 489.88 1255.92 693.269 1379.12 749.72C1489.54 800.23 1579.91 708.394 1537.77 588.198C1506.39 499.064 1415.44 435.049 1343.09 451.255Z" fill="#CFBDFE"/>
<path d="M698.306 552.001C550.985 568.478 499.263 751.878 616.945 840.472C734.337 928.796 909.843 836.421 889.212 697.047C878.17 620.878 801.75 543.628 698.306 552.001Z" fill="#CFBDFE"/>
<path d="M788.088 1269.13C612.001 1295.6 576.261 1477.11 693.071 1559.49C820.342 1649.44 1013.57 1541.93 984.516 1397.7C966.791 1308.29 868.577 1258.86 788.088 1269.13Z" fill="#CFBDFE"/>
</svg>
