<svg width="620" height="233" viewBox="0 0 620 233" fill="none" xmlns="http://www.w3.org/2000/svg">
<path d="M362.137 98.2969C369.735 98.2969 375.631 100.518 379.826 104.959C384.021 109.361 386.119 115.588 386.119 123.638V140.652C386.119 145.411 386.297 149.475 386.653 152.846C387.049 156.178 387.503 158.894 388.018 160.996H379.945C378.837 160.322 377.966 159.449 377.333 158.379C376.7 157.308 376.146 156.158 375.671 154.929L375.552 152.787L374.246 154.929C371.238 157.943 368.449 159.906 365.876 160.818C363.304 161.73 360.593 162.186 357.744 162.186C353.628 162.186 350.066 161.452 347.059 159.985C344.091 158.478 341.795 156.455 340.172 153.917C338.59 151.379 337.798 148.504 337.798 145.292C337.798 141.286 338.847 137.974 340.944 135.357C343.042 132.7 346.485 130.558 351.273 128.932C356.101 127.306 362.572 126.018 370.684 125.066C370.526 126.018 370.17 127.148 369.616 128.457C369.101 129.766 368.25 130.975 367.063 132.085C365.876 133.196 364.234 133.91 362.137 134.227C358.654 134.782 356.002 135.595 354.182 136.666C352.401 137.737 351.175 138.966 350.502 140.354C349.869 141.702 349.552 143.11 349.552 144.578C349.552 146.997 350.422 149.119 352.164 150.943C353.905 152.728 356.28 153.62 359.287 153.62C361.978 153.62 364.689 152.945 367.42 151.597C370.15 150.249 372.663 148.068 374.959 145.054V122.805C374.959 118.086 373.811 114.259 371.516 111.325C369.26 108.35 365.421 106.863 359.999 106.863C357.862 106.863 355.745 107.081 353.648 107.517C351.55 107.953 349.077 108.687 346.227 109.718L343.497 102.342C347.375 100.676 350.798 99.5855 353.766 99.07C356.734 98.5544 359.525 98.2969 362.137 98.2969Z" fill="#6E5AA6"/>
<path d="M480.873 98.4154C483.128 98.4154 485.601 98.6338 488.292 99.07C491.023 99.5062 494.051 100.319 497.375 101.509L494.644 109.242C492.151 108.409 489.836 107.815 487.699 107.458C485.601 107.061 483.722 106.863 482.06 106.863C479.329 106.863 477.053 107.497 475.233 108.766C473.452 110.035 472.562 111.9 472.562 114.358C472.562 116.46 473.254 118.225 474.639 119.652C476.024 121.08 477.805 122.35 479.982 123.46C482.159 124.57 484.474 125.72 486.928 126.91C489.381 128.06 491.696 129.409 493.872 130.955C496.049 132.502 497.83 134.425 499.215 136.725C500.6 138.986 501.293 141.841 501.293 145.292C501.293 148.306 500.363 151.102 498.503 153.679C496.643 156.217 494.209 158.28 491.201 159.866C488.194 161.413 484.949 162.186 481.466 162.186C478.459 162.186 475.233 161.908 471.79 161.353C468.387 160.838 464.37 159.45 459.74 157.189L462.589 149.337C465.636 150.804 468.684 151.895 471.731 152.609C474.778 153.283 477.548 153.62 480.041 153.62C483.603 153.62 486.255 152.787 487.996 151.122C489.737 149.456 490.608 147.314 490.608 144.697C490.608 142.516 489.915 140.711 488.53 139.283C487.145 137.855 485.364 136.587 483.187 135.476C481.011 134.366 478.695 133.255 476.242 132.145C473.788 130.995 471.473 129.686 469.297 128.219C467.12 126.712 465.339 124.848 463.954 122.627C462.569 120.406 461.876 117.65 461.876 114.358C461.876 111.82 462.589 109.341 464.013 106.922C465.478 104.463 467.615 102.441 470.425 100.855C473.274 99.2286 476.757 98.4154 480.873 98.4154Z" fill="#6E5AA6"/>
<path fill-rule="evenodd" clip-rule="evenodd" d="M568.594 98.2969C574.649 98.2969 579.813 99.7246 584.087 102.58C588.361 105.396 591.606 109.223 593.822 114.061C596.078 118.859 597.206 124.233 597.206 130.182C597.206 135.337 596.434 139.918 594.891 143.923C593.387 147.889 591.309 151.241 588.658 153.977C586.006 156.674 582.959 158.716 579.516 160.104C576.073 161.492 572.432 162.186 568.594 162.186C563.291 162.186 558.462 160.957 554.109 158.498C549.796 156.039 546.353 152.43 543.781 147.671C541.248 142.912 539.982 137.082 539.982 130.182C539.982 124.749 540.793 120.029 542.415 116.024C544.077 112.018 546.274 108.707 549.004 106.089C551.774 103.472 554.861 101.529 558.264 100.26C561.668 98.9512 565.111 98.2969 568.594 98.2969ZM568.594 106.863C565.586 106.863 562.796 107.696 560.224 109.362C557.691 111.027 555.633 113.585 554.05 117.035C552.507 120.486 551.735 124.868 551.735 130.182C551.735 137.082 553.199 142.714 556.128 147.076C559.056 151.439 563.212 153.62 568.594 153.62C572.432 153.62 575.598 152.549 578.091 150.408C580.584 148.266 582.425 145.43 583.612 141.901C584.839 138.332 585.452 134.425 585.452 130.182C585.452 124.868 584.661 120.486 583.078 117.035C581.534 113.585 579.477 111.027 576.904 109.362C574.372 107.696 571.601 106.863 568.594 106.863Z" fill="#6E5AA6"/>
<path d="M275.69 160.996H264.412V74.5015H275.69V160.996Z" fill="#6E5AA6"/>
<path d="M298.141 109.48L328.891 160.996H315.238L291.374 117.571L280.927 132.085C280.214 130.499 279.858 128.556 279.858 126.255C279.858 123.916 280.235 121.497 280.986 118.998C281.738 116.5 282.905 114.16 284.488 111.978L312.151 74.5015H324.973L298.141 109.48Z" fill="#6E5AA6"/>
<path d="M415.84 160.996H405.036V70.8137H415.84V160.996Z" fill="#6E5AA6"/>
<path d="M445.985 160.996H434.587V99.4862H445.985V160.996Z" fill="#6E5AA6"/>
<path d="M525.751 160.996H514.354V99.4862H525.751V160.996Z" fill="#6E5AA6"/>
<path d="M440.286 74.383C442.383 74.383 444.085 75.0766 445.391 76.4646C446.737 77.8129 447.409 79.5382 447.409 81.64C447.409 83.6625 446.737 85.3681 445.391 86.7561C444.085 88.1044 442.383 88.7784 440.286 88.7784C438.268 88.7784 436.566 88.1044 435.181 86.7561C433.835 85.3681 433.163 83.6625 433.163 81.64C433.163 79.5382 433.835 77.8129 435.181 76.4646C436.566 75.0767 438.268 74.383 440.286 74.383Z" fill="#6E5AA6"/>
<path d="M520.053 74.383C522.15 74.383 523.852 75.0767 525.158 76.4646C526.503 77.8129 527.176 79.5382 527.176 81.64C527.176 83.6625 526.503 85.3681 525.158 86.7561C523.852 88.1044 522.15 88.7784 520.053 88.7784C518.034 88.7784 516.333 88.1044 514.948 86.7561C513.602 85.3681 512.929 83.6625 512.929 81.64C512.929 79.5382 513.602 77.8129 514.948 76.4646C516.333 75.0766 518.034 74.383 520.053 74.383Z" fill="#6E5AA6"/>
<path d="M128.025 105.229C117.055 107.496 116.024 120.436 124.101 125.186C132.55 130.148 142.746 122.411 140.14 113.019C138.679 107.737 133.467 104.375 128.025 105.229Z" fill="#6E5AA6"/>
<path d="M28.0399 93.9959C22.5981 94.4228 21.1661 101.493 24.8034 104.188C28.5554 106.963 33.6535 103.201 32.8229 98.2648C32.4219 95.7301 30.417 93.9425 28.0399 93.9959Z" fill="#6E5AA6"/>
<path d="M29.8439 144.716C24.3448 145.143 23.858 151.706 27.9249 154.721C31.8487 157.629 36.689 154.934 36.0303 150.239C35.5721 147.117 32.7939 144.636 29.8439 144.716Z" fill="#6E5AA6"/>
<path d="M193.24 67.9026C190.462 69.6101 194.386 77.7477 197.164 78.2813C199.627 78.7616 199.341 73.7456 196.706 70.0637C195.474 68.3295 194.128 67.5024 193.24 67.9026Z" fill="#6E5AA6"/>
<path d="M207.131 116.701C204.181 118.462 204.639 127.56 206.816 128.147C209.25 128.814 210.74 121.023 208.849 117.608C208.191 116.434 207.503 116.541 207.131 116.701Z" fill="#6E5AA6"/>
<path d="M115.48 22.8926C112.645 23.6663 114.678 27.9085 118.029 29.7228C120.922 31.2703 123.27 30.2831 122.526 27.8018C121.724 25.1871 117.771 22.439 115.48 22.8926Z" fill="#6E5AA6"/>
<path d="M85.3502 27.6417C81.6556 28.3087 81.8274 33.1912 84.8061 35.0588C87.8134 36.9265 91.1357 34.8187 90.391 31.537C89.8755 29.1891 87.5269 27.3749 85.3502 27.6417Z" fill="#6E5AA6"/>
<path d="M151.052 196.129C146.642 197.196 143.921 202.426 146.183 203.786C148.732 205.334 154.375 200.718 153.83 197.543C153.63 196.369 152.57 195.836 151.052 196.129Z" fill="#6E5AA6"/>
<path d="M109.437 202.666C104.597 203.439 103.079 207.602 105.943 209.469C109.151 211.55 114.821 208.562 114.134 205.12C113.762 203.413 111.814 202.372 109.437 202.666Z" fill="#6E5AA6"/>
<path d="M52.3273 111.312C39.4676 112.699 37.119 127.827 45.9976 134.364C54.905 140.927 67.1059 134.124 66.1035 123.158C65.4448 116.221 59.2584 110.912 52.3273 111.312Z" fill="#6E5AA6"/>
<path d="M187.799 89.9139C179.006 93.5959 182.586 112.246 190.233 114.86C197.422 117.342 201.346 104.615 196.276 95.17C194.099 91.0079 190.749 88.9535 187.799 89.9139Z" fill="#6E5AA6"/>
<path d="M153.171 40.6618C147.586 42.7696 153.257 53.7887 159.988 56.6702C165.057 58.858 168.236 55.7097 166.289 50.4269C164.141 44.7173 157.152 39.5146 153.171 40.6618Z" fill="#6E5AA6"/>
<path d="M69.2541 176.039C60.0031 177.106 58.4565 185.831 64.4997 190.527C71.4881 195.969 82.0279 191.754 80.8536 183.99C80.109 179.214 74.925 175.639 69.2541 176.039Z" fill="#6E5AA6"/>
<path d="M53.4438 54.8292C44.1928 55.8964 42.6462 64.6209 48.6894 69.3167C55.6778 74.7595 66.2176 70.544 65.0433 62.78C64.2986 57.9775 59.1147 54.429 53.4438 54.8292Z" fill="#6E5AA6"/>
<path d="M184.877 157.629C176.772 160.457 173.306 173.984 178.404 175.772C183.76 177.64 191.722 165.714 189.202 159.604C188.457 157.789 186.853 157.069 184.877 157.629Z" fill="#6E5AA6"/>
<path d="M107.718 38.4208C98.2095 40.4485 99.9279 52.855 108.234 57.2573C116.253 61.5262 124.387 56.5636 122.239 48.6928C120.549 42.5029 113.504 37.487 107.718 38.4208Z" fill="#6E5AA6"/>
<path d="M134.04 174.198C121.81 176.652 117.8 189.032 125.333 193.354C133.352 197.943 146.384 188.712 144.436 179.827C143.52 175.718 139.252 173.397 134.04 174.198Z" fill="#6E5AA6"/>
<path d="M167.177 129.081C152.112 133.35 149.19 154.721 159.644 160.484C170.299 166.38 183.789 151.573 180.266 137.885C178.576 131.349 173.22 127.747 167.177 129.081Z" fill="#6E5AA6"/>
<path d="M147.702 59.925C134.556 63.7404 139.109 83.8308 151.253 89.407C162.137 94.3963 171.044 85.3249 166.891 73.4521C163.798 64.6475 154.833 58.3242 147.702 59.925Z" fill="#6E5AA6"/>
<path d="M84.1474 69.8766C69.6265 71.5041 64.5285 89.6202 76.128 98.3714C87.6989 107.096 104.998 97.9712 102.964 84.204C101.876 76.6801 94.3435 69.0495 84.1474 69.8766Z" fill="#6E5AA6"/>
<path d="M92.997 140.714C75.6407 143.328 72.1179 161.258 83.6315 169.395C96.1762 178.28 115.222 167.661 112.358 153.413C110.611 144.582 100.931 139.7 92.997 140.714Z" fill="#6E5AA6"/>
</svg>
