<svg width="2048" height="768" viewBox="0 0 2048 768" fill="none" xmlns="http://www.w3.org/2000/svg">
<path d="M1196.22 324C1221.32 324 1240.79 331.32 1254.65 345.96C1268.51 360.47 1275.44 380.993 1275.44 407.529V463.607C1275.44 479.293 1276.03 492.691 1277.2 503.802C1278.51 514.782 1280.01 523.738 1281.71 530.666H1255.04C1251.38 528.443 1248.51 525.567 1246.41 522.038C1244.32 518.508 1242.49 514.718 1240.93 510.666L1240.53 503.607L1236.22 510.666C1226.28 520.6 1217.07 527.071 1208.57 530.077C1200.07 533.084 1191.12 534.588 1181.71 534.588C1168.11 534.588 1156.35 532.168 1146.41 527.332C1136.61 522.364 1129.03 515.698 1123.67 507.332C1118.44 498.966 1115.82 489.489 1115.82 478.901C1115.82 465.698 1119.29 454.783 1126.22 446.155C1133.14 437.397 1144.52 430.338 1160.33 424.979C1176.28 419.619 1197.66 415.372 1224.45 412.235C1223.93 415.372 1222.75 419.098 1220.92 423.412C1219.22 427.725 1216.41 431.712 1212.49 435.372C1208.57 439.031 1203.15 441.385 1196.22 442.43C1184.72 444.261 1175.96 446.941 1169.94 450.47C1164.06 454 1160.01 458.051 1157.79 462.626C1155.69 467.07 1154.65 471.711 1154.65 476.548C1154.65 484.522 1157.52 491.516 1163.28 497.529C1169.03 503.411 1176.87 506.353 1186.81 506.353C1195.7 506.353 1204.65 504.129 1213.67 499.685C1222.69 495.24 1230.99 488.052 1238.57 478.117V404.783C1238.57 389.228 1234.78 376.614 1227.2 366.941C1219.75 357.137 1207.07 352.235 1189.16 352.235C1182.1 352.235 1175.11 352.953 1168.18 354.39C1161.25 355.828 1153.08 358.248 1143.67 361.647L1134.65 337.332C1147.46 331.842 1158.77 328.247 1168.57 326.548C1178.37 324.849 1187.59 324 1196.22 324Z" fill="#6E5AA6"/>
<path d="M1588.43 324.39C1595.88 324.391 1604.05 325.11 1612.94 326.548C1621.96 327.986 1631.96 330.666 1642.94 334.588L1633.92 360.077C1625.69 357.332 1618.04 355.372 1610.98 354.195C1604.05 352.888 1597.84 352.235 1592.35 352.235C1583.33 352.235 1575.81 354.325 1569.8 358.508C1563.92 362.691 1560.98 368.837 1560.98 376.941C1560.98 383.868 1563.27 389.685 1567.84 394.39C1572.42 399.096 1578.3 403.281 1585.49 406.941C1592.68 410.601 1600.33 414.391 1608.43 418.313C1616.54 422.104 1624.18 426.549 1631.37 431.647C1638.56 436.745 1644.45 443.084 1649.02 450.666C1653.6 458.117 1655.88 467.529 1655.88 478.901C1655.88 488.836 1652.81 498.051 1646.67 506.548C1640.52 514.914 1632.48 521.712 1622.55 526.941C1612.61 532.039 1601.89 534.588 1590.39 534.588C1580.46 534.588 1569.8 533.672 1558.43 531.842C1547.19 530.143 1533.92 525.568 1518.62 518.117L1528.04 492.235C1538.1 497.071 1548.17 500.666 1558.23 503.019C1568.3 505.241 1577.45 506.353 1585.68 506.353C1597.45 506.353 1606.21 503.608 1611.96 498.117C1617.71 492.627 1620.59 485.568 1620.59 476.941C1620.59 469.751 1618.3 463.802 1613.73 459.096C1609.15 454.39 1603.27 450.208 1596.08 446.548C1588.89 442.888 1581.24 439.227 1573.13 435.567C1565.03 431.776 1557.38 427.462 1550.19 422.626C1543 417.658 1537.12 411.515 1532.55 404.195C1527.97 396.875 1525.68 387.79 1525.68 376.941C1525.68 368.575 1528.03 360.404 1532.74 352.43C1537.58 344.326 1544.64 337.659 1553.92 332.43C1563.33 327.071 1574.84 324.39 1588.43 324.39Z" fill="#6E5AA6"/>
<path fill-rule="evenodd" clip-rule="evenodd" d="M1878.19 324C1898.19 324 1915.25 328.706 1929.37 338.117C1943.49 347.398 1954.21 360.012 1961.53 375.96C1968.98 391.777 1972.71 409.489 1972.71 429.096C1972.71 446.09 1970.16 461.188 1965.06 474.39C1960.09 487.462 1953.23 498.51 1944.47 507.529C1935.71 516.418 1925.64 523.149 1914.27 527.725C1902.9 532.299 1890.87 534.588 1878.19 534.588C1860.68 534.588 1844.73 530.535 1830.35 522.43C1816.1 514.326 1804.73 502.429 1796.23 486.743C1787.86 471.057 1783.68 451.841 1783.68 429.096C1783.68 411.188 1786.36 395.633 1791.72 382.43C1797.21 369.228 1804.47 358.312 1813.48 349.685C1822.64 341.057 1832.83 334.653 1844.07 330.47C1855.32 326.157 1866.69 324 1878.19 324ZM1878.19 352.235C1868.26 352.235 1859.04 354.98 1850.54 360.47C1842.18 365.961 1835.38 374.392 1830.15 385.765C1825.05 397.137 1822.51 411.581 1822.51 429.096C1822.51 451.841 1827.34 470.404 1837.01 484.783C1846.69 499.162 1860.42 506.353 1878.19 506.353C1890.87 506.353 1901.33 502.823 1909.57 495.765C1917.8 488.706 1923.88 479.358 1927.8 467.725C1931.85 455.96 1933.88 443.083 1933.88 429.096C1933.88 411.581 1931.27 397.137 1926.04 385.765C1920.94 374.392 1914.14 365.961 1905.65 360.47C1897.28 354.98 1888.13 352.235 1878.19 352.235Z" fill="#6E5AA6"/>
<path d="M910.667 530.666H873.412V245.567H910.667V530.666Z" fill="#6E5AA6"/>
<path d="M984.828 360.861L1086.4 530.666H1041.3L962.476 387.529L927.964 435.372C925.611 430.143 924.434 423.737 924.434 416.155C924.434 408.443 925.678 400.47 928.162 392.235C930.646 384 934.5 376.286 939.729 369.096L1031.11 245.567H1073.46L984.828 360.861Z" fill="#6E5AA6"/>
<path d="M1373.61 530.666H1337.93V233.412H1373.61V530.666Z" fill="#6E5AA6"/>
<path d="M1473.19 530.666H1435.54V327.92H1473.19V530.666Z" fill="#6E5AA6"/>
<path d="M1736.67 530.666H1699.03V327.92H1736.67V530.666Z" fill="#6E5AA6"/>
<path d="M1454.36 245.176C1461.29 245.176 1466.91 247.463 1471.23 252.038C1475.67 256.482 1477.89 262.169 1477.89 269.096C1477.89 275.763 1475.67 281.385 1471.23 285.96C1466.91 290.404 1461.29 292.626 1454.36 292.626C1447.7 292.626 1442.08 290.404 1437.5 285.96C1433.06 281.385 1430.83 275.763 1430.83 269.096C1430.83 262.169 1433.06 256.482 1437.5 252.038C1442.08 247.463 1447.7 245.176 1454.36 245.176Z" fill="#6E5AA6"/>
<path d="M1717.85 245.176C1724.78 245.176 1730.4 247.463 1734.71 252.038C1739.16 256.482 1741.38 262.169 1741.38 269.096C1741.38 275.763 1739.16 281.385 1734.71 285.96C1730.4 290.404 1724.78 292.626 1717.85 292.626C1711.18 292.626 1705.56 290.404 1700.99 285.96C1696.54 281.385 1694.32 275.763 1694.32 269.096C1694.32 262.169 1696.54 256.482 1700.99 252.038C1705.56 247.463 1711.18 245.176 1717.85 245.176Z" fill="#6E5AA6"/>
<path d="M422.895 346.847C386.66 354.323 383.254 396.975 409.933 412.629C437.843 428.986 471.523 403.483 462.914 372.527C458.089 355.114 440.87 344.033 422.895 346.847Z" fill="#6E5AA6"/>
<path d="M92.622 309.823C74.6466 311.23 69.9162 334.535 81.9314 343.417C94.3249 352.563 111.165 340.163 108.421 323.894C107.097 315.539 100.474 309.647 92.622 309.823Z" fill="#6E5AA6"/>
<path d="M98.5811 477.003C80.4165 478.41 78.8082 500.044 92.2424 509.982C105.204 519.567 121.192 510.685 119.016 495.207C117.503 484.918 108.326 476.739 98.5811 477.003Z" fill="#6E5AA6"/>
<path d="M638.317 223.816C629.14 229.444 642.101 256.267 651.278 258.026C659.414 259.609 658.468 243.076 649.764 230.939C645.696 225.223 641.25 222.497 638.317 223.816Z" fill="#6E5AA6"/>
<path d="M684.201 384.663C674.456 390.467 675.97 420.455 683.16 422.39C691.202 424.589 696.121 398.909 689.877 387.653C687.701 383.783 685.431 384.135 684.201 384.663Z" fill="#6E5AA6"/>
<path d="M381.457 75.4569C372.09 78.0073 378.808 91.9902 389.877 97.9703C399.432 103.071 407.19 99.8171 404.73 91.6384C402.081 83.02 389.025 73.9619 381.457 75.4569Z" fill="#6E5AA6"/>
<path d="M281.931 91.1105C269.727 93.309 270.294 109.403 280.134 115.559C290.067 121.715 301.042 114.767 298.582 103.95C296.879 96.2112 289.121 90.2311 281.931 91.1105Z" fill="#6E5AA6"/>
<path d="M498.96 646.468C484.391 649.986 475.403 667.222 482.877 671.708C491.297 676.808 509.934 661.594 508.137 651.129C507.475 647.259 503.974 645.501 498.96 646.468Z" fill="#6E5AA6"/>
<path d="M361.495 668.014C345.506 670.564 340.492 684.283 349.953 690.439C360.549 697.299 379.281 687.449 377.011 676.105C375.781 670.476 369.348 667.046 361.495 668.014Z" fill="#6E5AA6"/>
<path d="M172.849 366.9C130.37 371.473 122.612 421.336 151.941 442.882C181.363 464.516 221.666 442.091 218.355 405.946C216.179 383.081 195.744 365.581 172.849 366.9Z" fill="#6E5AA6"/>
<path d="M620.341 296.369C591.296 308.505 603.122 369.977 628.383 378.595C652.129 386.774 665.09 344.825 648.344 313.693C641.154 299.974 630.085 293.203 620.341 296.369Z" fill="#6E5AA6"/>
<path d="M505.959 134.027C487.511 140.974 506.243 177.295 528.476 186.792C545.221 194.004 555.723 183.627 549.289 166.214C542.194 147.394 519.11 130.245 505.959 134.027Z" fill="#6E5AA6"/>
<path d="M228.762 580.249C198.204 583.766 193.095 612.523 213.057 628.001C236.141 645.942 270.957 632.047 267.078 606.455C264.618 590.714 247.494 578.929 228.762 580.249Z" fill="#6E5AA6"/>
<path d="M176.537 180.724C145.979 184.242 140.87 212.999 160.832 228.477C183.916 246.417 218.732 232.523 214.853 206.931C212.393 191.102 195.269 179.405 176.537 180.724Z" fill="#6E5AA6"/>
<path d="M610.691 519.568C583.917 528.89 572.47 573.477 589.31 579.369C607.002 585.525 633.302 546.214 624.977 526.075C622.517 520.095 617.219 517.721 610.691 519.568Z" fill="#6E5AA6"/>
<path d="M355.818 126.64C324.408 133.324 330.085 174.217 357.521 188.728C384.011 202.798 410.879 186.441 403.784 160.498C398.202 140.095 374.928 123.562 355.818 126.64Z" fill="#6E5AA6"/>
<path d="M442.764 574.179C402.367 582.27 389.122 623.076 414.003 637.322C440.493 652.448 483.54 622.02 477.106 592.735C474.079 579.192 459.982 571.541 442.764 574.179Z" fill="#6E5AA6"/>
<path d="M552.223 425.468C502.46 439.539 492.81 509.981 527.341 528.977C562.535 548.412 607.095 499.604 595.458 454.489C589.876 432.943 572.185 421.071 552.223 425.468Z" fill="#6E5AA6"/>
<path d="M487.892 197.521C444.467 210.097 459.51 276.318 499.623 294.698C535.574 311.143 564.997 281.242 551.279 242.108C541.061 213.087 511.449 192.244 487.892 197.521Z" fill="#6E5AA6"/>
<path d="M277.958 230.323C229.992 235.687 213.152 295.4 251.468 324.245C289.689 353.003 346.832 322.926 340.115 277.548C336.52 252.748 311.638 227.596 277.958 230.323Z" fill="#6E5AA6"/>
<path d="M307.19 463.811C249.858 472.429 238.222 531.527 276.254 558.349C317.692 587.634 380.605 552.633 371.144 505.672C365.373 476.563 333.396 460.469 307.19 463.811Z" fill="#6E5AA6"/>
</svg>
